<svg xmlns="http://www.w3.org/2000/svg" viewBox="0 0 336.67 104.18"><defs><style>.cls-1{fill:#fff;}</style></defs><g id="Layer_2" data-name="Layer 2"><g id="Layer_1-2" data-name="Layer 1"><path class="cls-1" d="M48.72,0c20.34,0,37.9,12,45.52,31.16,7.16,18,2.37,39.23-11.95,52.79-1.33,1.26-2,2.21-1.15,4.11,1,2.22,0,4.33-1.66,5.93-3,3-6.2,5.92-9.39,8.77A6.24,6.24,0,0,1,67.35,104c-3.27.7-6.65-1.29-8.49-4.86-1.48-2.88-1-5.61,1.53-8.05,2.82-2.72,5.68-5.41,8.61-8,2.12-1.89,4.59-2.49,7.17-1A2.06,2.06,0,0,0,79,81.66C96.16,66.2,98.54,39,84,21.12,72.39,6.88,57.2,1.15,39.29,5,21.54,8.88,10.15,20.31,5.35,37.84S8.26,74.91,23.87,85.33A48.63,48.63,0,0,0,45.8,93.21c1.61.18,2.36-.16,2.21-2a53.43,53.43,0,0,1,0-5.8c0-1.07-.24-1.61-1.43-1.8A19.23,19.23,0,0,1,32.29,74C26.74,63.82,21.54,53.32,22,41.17a41.46,41.46,0,0,1,.45-5.23,11.58,11.58,0,0,1,8.49-9.83c1.33-.42,2.7-.7,4-1.2a7.25,7.25,0,0,0,2.38-1.45c1.45-1.38,2.93-1.68,4.36-.66A4.26,4.26,0,0,1,42.88,28a3.36,3.36,0,0,1-4.24,1.78c-4.11-1.38-10.82,2.28-11.73,6.56a29.67,29.67,0,0,0,.61,14.17,98.72,98.72,0,0,0,4.07,11.58,14.64,14.64,0,0,0,5.13,6.4,19.89,19.89,0,0,1,3.87,3.8c3.21,4,10.72,5.09,14.72,1.6a108.42,108.42,0,0,0,8.29-7.74c3.08-3.3,4.24-7.67,5.58-11.84a37.6,37.6,0,0,0,1.74-17.14,7,7,0,0,0-4.58-6A51.74,51.74,0,0,0,61,29.49a3.61,3.61,0,0,0-1.89.27,3.55,3.55,0,0,1-4.46-1.7A4.26,4.26,0,0,1,56,22.73c1.45-1,3.07-.6,4.5.9a5.14,5.14,0,0,0,1.9,1.19c1,.4,2.08.6,3.12.92,6.58,2.06,9.28,5.37,9.88,12.27.86,9.87-1.75,19-6,27.79-1.19,2.47-2.37,5-3.62,7.37-1.55,2.93-4.57,5.17-7.21,7.41a17.48,17.48,0,0,1-5,2.47,1.78,1.78,0,0,0-1.37,2c.06,3.62,0,7.24.05,10.87,0,1.37-.45,1.72-1.77,1.75C27.35,98.21,5.75,80.91,1,58-3.69,35.5,8.77,12.39,30.34,3.52A49.17,49.17,0,0,1,48.72,0Zm29.2,85.13c-3.34.8-8.07,5.38-8.29,8.29C72.66,90.77,77.23,90,77.92,85.13Z"/><path class="cls-1" d="M113.67,94V10h8.65V45.7H164V10h8.73V94H164V58.3H122.32V94Z"/><path class="cls-1" d="M183.78,94V10h10.34l22.35,38.73L238.75,10h10.42V94h-8.74V26.92l-24,41.53-24-41.53V94Z"/><path class="cls-1" d="M259.82,94V10h8.66V94Z"/><path class="cls-1" d="M289.39,94c-2.89,0-5.34-1.48-7.37-4.43a18.53,18.53,0,0,1-3-10.74v-4.9h8.66v3.15a6.68,6.68,0,0,0,.6,3.44,2.66,2.66,0,0,0,2.36.88h34.46a2.56,2.56,0,0,0,2.32-.88,7.14,7.14,0,0,0,.56-3.44V62.62a7.1,7.1,0,0,0-.56-3.5,2.65,2.65,0,0,0-2.32-.82H289.39c-2.89,0-5.34-1.48-7.37-4.43a18.53,18.53,0,0,1-3-10.74v-18a18.53,18.53,0,0,1,3-10.74c2-2.95,4.48-4.43,7.37-4.43h36.86q4.32,0,7.37,4.43a18.53,18.53,0,0,1,3.05,10.74v4.9h-8.74V26.92a7.21,7.21,0,0,0-.56-3.45,2.58,2.58,0,0,0-2.32-.87H290.59a2.69,2.69,0,0,0-2.36.87,6.75,6.75,0,0,0-.6,3.45V41.38a6.65,6.65,0,0,0,.6,3.5,2.76,2.76,0,0,0,2.36.82h35.66q4.32,0,7.37,4.43a18.53,18.53,0,0,1,3.05,10.74v18a18.53,18.53,0,0,1-3.05,10.74q-3,4.43-7.37,4.43Z"/></g></g></svg>