<svg width="419" height="129" viewBox="0 0 419 129" fill="none" xmlns="http://www.w3.org/2000/svg">
<path d="M60.6344 9.34117e-07C85.9483 9.34117e-07 107.802 14.8589 117.286 38.5836C126.197 60.872 120.235 87.1598 102.414 103.95C100.758 105.511 99.9245 106.687 100.982 109.04C102.227 111.788 100.982 114.401 98.9165 116.382C95.1828 120.097 91.2003 123.713 87.2302 127.242C86.2364 128.022 85.0657 128.55 83.8202 128.777C79.7505 129.644 75.544 127.18 73.254 122.759C71.4121 119.193 72.0095 115.813 75.1582 112.791C78.6678 109.423 82.2272 106.093 85.8737 102.885C88.5121 100.545 91.5861 99.8023 94.797 101.647C95.339 102.03 96.0091 102.188 96.6662 102.089C97.3233 101.99 97.9159 101.64 98.3191 101.115C119.675 81.9716 122.637 48.2914 104.542 26.1517C90.0927 8.5191 71.1881 1.42398 48.8983 6.19121C26.8077 10.9956 12.6324 25.1487 6.65857 46.8551C0.684763 68.5614 10.2802 92.7567 29.7075 105.659C37.8758 111.064 47.2423 114.413 57.0003 115.416C59.004 115.639 59.9374 115.218 59.7507 112.94C59.62 110.548 59.62 108.15 59.7507 105.758C59.7507 104.433 59.452 103.765 57.971 103.529C54.281 103.058 50.7523 101.737 47.6652 99.671C44.578 97.6054 42.0173 94.8522 40.1865 91.6299C33.2793 79.0246 26.8077 66.023 27.3802 50.9784C27.4292 48.8101 27.6163 46.6471 27.9402 44.5024C28.2766 41.6551 29.4631 38.9734 31.3466 36.8037C33.23 34.634 35.724 33.0759 38.5064 32.3305C40.1616 31.8104 41.8667 31.4637 43.4846 30.8446C44.5793 30.4423 45.5852 29.8326 46.4466 29.0491C48.2512 27.3404 50.0931 26.9689 51.8728 28.2319C52.8216 28.9754 53.4869 30.0189 53.7585 31.1898C54.03 32.3607 53.8917 33.5888 53.3662 34.6708C52.933 35.6367 52.1464 36.4022 51.1661 36.8116C50.1859 37.221 49.0858 37.2436 48.0894 36.8748C42.9743 35.1661 34.6234 39.698 33.4909 44.9977C32.3145 50.8214 32.5751 56.842 34.2501 62.5436C35.6379 67.4231 37.3296 72.212 39.3154 76.8824C40.6411 80.0753 42.8562 82.8248 45.6999 84.8072C47.5137 86.1494 49.1342 87.7326 50.5162 89.5125C54.5112 94.4654 63.8577 95.8151 68.8359 91.4937C72.4407 88.4803 75.8845 85.2812 79.1531 81.9097C82.9863 77.8235 84.43 72.4124 86.0977 67.2489C88.4607 60.4365 89.202 53.1713 88.2632 46.0254C88.1259 44.3746 87.5161 42.7975 86.5059 41.4808C85.4957 40.1641 84.1275 39.163 82.5632 38.596C80.3873 37.7838 78.1687 37.0893 75.9173 36.5157C75.1173 36.4151 74.3048 36.5306 73.5652 36.8501C72.5425 37.2483 71.4074 37.2534 70.3812 36.8642C69.355 36.475 68.5113 35.7195 68.0145 34.7451C67.4659 33.6248 67.3336 32.3474 67.6411 31.1394C67.9486 29.9313 68.6761 28.8706 69.6946 28.1452C71.4992 26.907 73.5154 27.4023 75.2951 29.2596C75.9647 29.9179 76.7721 30.4211 77.6597 30.7332C78.9042 31.2285 80.2483 31.4761 81.5427 31.8723C89.7317 34.4231 93.092 38.5217 93.8387 47.0656C94.909 59.287 91.6608 70.5922 86.3715 81.4763C84.8905 84.5348 83.4219 87.6675 81.8662 90.6021C79.9372 94.2302 76.1787 97.0038 72.8931 99.7775C70.9967 101.122 68.8958 102.154 66.6704 102.836C66.1243 102.958 65.645 103.281 65.3287 103.741C65.0124 104.2 64.8826 104.762 64.9654 105.312C65.04 109.795 64.9654 114.277 65.0276 118.772C65.0276 120.469 64.4675 120.902 62.8248 120.939C34.0385 121.608 7.15638 100.186 1.24481 71.818C-4.59209 43.9576 10.9149 15.3418 37.7597 4.35861C45.0338 1.46216 52.7993 -0.0175043 60.6344 9.34117e-07ZM96.975 105.411C92.8182 106.402 86.9315 112.073 86.6577 115.677C90.4287 112.395 96.1162 111.442 96.975 105.411Z" fill="white"/>
<path d="M94.5852 112.457C93.5771 119.49 86.8939 120.642 82.4634 124.505C82.7994 120.27 89.7066 113.609 94.5852 112.457Z" fill="white"/>
<path d="M141.467 116.395V12.3824H152.232V56.5876H204.105V12.3824H214.97V116.395H204.105V72.1895H152.232V116.395H141.467Z" fill="white"/>
<path d="M228.722 116.395V12.3824H241.59L269.406 60.3395L297.134 12.3824H310.103V116.395H299.225V33.3335L269.356 84.7576L239.487 33.3335V116.395H228.722Z" fill="white"/>
<path d="M323.357 116.395V12.3824H334.135V116.395H323.357Z" fill="white"/>
<path d="M360.158 116.395C356.561 116.395 353.512 114.562 350.986 110.909C348.398 106.963 347.095 102.32 347.252 97.6106V91.5432H358.03V95.4437C357.895 96.9043 358.152 98.3743 358.776 99.7032C359.137 100.112 359.595 100.426 360.107 100.616C360.62 100.806 361.172 100.867 361.714 100.793H404.601C405.135 100.87 405.681 100.81 406.186 100.619C406.691 100.429 407.139 100.113 407.488 99.7032C408.07 98.3624 408.31 96.899 408.185 95.4437V77.5387C408.324 76.0587 408.085 74.5676 407.488 73.2048C407.125 72.8159 406.673 72.5204 406.17 72.3435C405.667 72.1667 405.128 72.1138 404.601 72.1895H360.158C356.561 72.1895 353.512 70.3569 350.986 66.7041C348.398 62.7577 347.095 58.1145 347.252 53.4054V31.117C347.095 26.4078 348.398 21.7646 350.986 17.8183C353.475 14.1655 356.561 12.3329 360.158 12.3329H406.032C409.616 12.3329 412.673 14.1614 415.204 17.8183C417.813 21.7575 419.139 26.4013 419 31.117V37.1844H408.123V33.3335C408.246 31.8742 408.007 30.4071 407.426 29.0615C407.074 28.6553 406.625 28.3437 406.12 28.1555C405.616 27.9672 405.072 27.9083 404.538 27.9843H361.651C361.111 27.9121 360.56 27.9726 360.048 28.1603C359.537 28.3481 359.079 28.6574 358.714 29.0615C358.092 30.3954 357.834 31.8689 357.968 33.3335V51.2384C357.817 52.7237 358.075 54.2217 358.714 55.5723C359.089 55.9594 359.55 56.2531 360.061 56.4295C360.571 56.606 361.116 56.6601 361.651 56.5876H406.032C409.616 56.5876 412.673 58.4161 415.204 62.073C417.813 66.0123 419.139 70.656 419 75.3718V97.6601C419.139 102.376 417.813 107.02 415.204 110.959C412.715 114.616 409.658 116.444 406.032 116.444L360.158 116.395Z" fill="white"/>
</svg>
